<svg width="18" height="19" viewBox="0 0 18 19" fill="none" xmlns="http://www.w3.org/2000/svg">
<path d="M5.57007 14.7902C6.19194 14.7904 6.70092 15.3134 6.70092 15.9582C6.70067 16.5951 6.19179 17.1172 5.57007 17.1174C4.94072 17.1174 4.43068 16.5952 4.43042 15.9582C4.43042 15.3133 4.94056 14.7902 5.57007 14.7902ZM14.0007 14.7902C14.6227 14.7902 15.1326 15.3133 15.1326 15.9582C15.1323 16.5952 14.6226 17.1173 14.0007 17.1174C13.3714 17.1174 12.8623 16.5952 12.8621 15.9582C12.8621 15.3133 13.3712 14.7902 14.0007 14.7902ZM2.15991 2.07635L3.94702 2.35272C4.20176 2.39954 4.38931 2.61324 4.41186 2.8742L4.55444 4.59393C4.57692 4.84031 4.77175 5.02449 5.01147 5.02459H15.1326C15.5897 5.0246 15.8895 5.1861 16.1892 5.53924C16.489 5.89241 16.5418 6.39965 16.4744 6.85955L15.7624 11.8957C15.6276 12.8638 14.8177 13.5773 13.866 13.5773H5.69018C4.69351 13.5773 3.86937 12.7948 3.78686 11.7814L3.09643 3.41229L1.96557 3.21209C1.66581 3.15835 1.45608 2.85904 1.50854 2.55193C1.561 2.23803 1.85276 2.02968 2.15991 2.07635ZM10.5906 7.86541C10.2761 7.86564 10.0292 8.11839 10.029 8.44061C10.029 8.75525 10.276 9.01654 10.5906 9.01678H12.6667C12.9815 9.01678 13.2292 8.75539 13.2292 8.44061C13.2291 8.11824 12.9814 7.86541 12.6667 7.86541H10.5906Z" fill="#A6ABC8"/>
</svg>
