<svg width="18" height="19" viewBox="0 0 18 19" fill="none" xmlns="http://www.w3.org/2000/svg">
<path fill-rule="evenodd" clip-rule="evenodd" d="M5.49799 1.93896H12.5022C15.053 1.93896 16.493 3.39024 16.5005 5.94896V12.9758C16.5005 15.5338 15.053 16.9858 12.5022 16.9858H5.49799C2.94724 16.9858 1.50049 15.5338 1.50049 12.9758V5.94896C1.50049 3.39024 2.94724 1.93896 5.49799 1.93896ZM9.03729 13.8711C9.36054 13.8711 9.62979 13.6304 9.65979 13.3069V5.6405C9.68979 5.40727 9.57804 5.17329 9.37554 5.04614C9.16479 4.91825 8.90979 4.91825 8.70804 5.04614C8.50479 5.17329 8.39304 5.40727 8.41479 5.6405V13.3069C8.45304 13.6304 8.72229 13.8711 9.03729 13.8711ZM12.488 13.8711C12.803 13.8711 13.0723 13.6304 13.1105 13.3069V10.8392C13.1323 10.5977 13.0205 10.3727 12.8173 10.2448C12.6155 10.1169 12.3605 10.1169 12.1505 10.2448C11.9473 10.3727 11.8355 10.5977 11.8655 10.8392V13.3069C11.8955 13.6304 12.1648 13.8711 12.488 13.8711ZM6.16476 13.3069C6.13476 13.6304 5.86551 13.8711 5.54226 13.8711C5.21976 13.8711 4.94976 13.6304 4.92051 13.3069V8.10818C4.89801 7.8742 5.00976 7.64173 5.21301 7.51383C5.41476 7.38593 5.67051 7.38593 5.87301 7.51383C6.07476 7.64173 6.18801 7.8742 6.16476 8.10818V13.3069Z" fill="#707FDD"/>
</svg>
