<svg width="18" height="19" viewBox="0 0 18 19" fill="none" xmlns="http://www.w3.org/2000/svg">
<path fill-rule="evenodd" clip-rule="evenodd" d="M1.5 9.86726C1.5 5.90399 4.6575 2.33252 9.015 2.33252C13.275 2.33252 16.5 5.83617 16.5 9.84466C16.5 14.4936 12.72 17.3794 9 17.3794C7.77 17.3794 6.405 17.0479 5.31 16.3999C4.9275 16.1663 4.605 15.993 4.1925 16.1286L2.6775 16.5807C2.295 16.7013 1.95 16.3999 2.0625 15.993L2.565 14.3052C2.6475 14.0716 2.6325 13.823 2.5125 13.6271C1.8675 12.4366 1.5 11.1331 1.5 9.86726ZM8.02491 9.86726C8.02491 10.4022 8.45241 10.8317 8.98491 10.8392C9.51741 10.8392 9.94491 10.4022 9.94491 9.8748C9.94491 9.33983 9.51741 8.91035 8.98491 8.91035C8.45991 8.90282 8.02491 9.33983 8.02491 9.86726ZM11.4825 9.8748C11.4825 10.4022 11.91 10.8392 12.4425 10.8392C12.975 10.8392 13.4025 10.4022 13.4025 9.8748C13.4025 9.33983 12.975 8.91035 12.4425 8.91035C11.91 8.91035 11.4825 9.33983 11.4825 9.8748ZM5.52758 10.8392C5.00258 10.8392 4.56758 10.4022 4.56758 9.8748C4.56758 9.33983 4.99508 8.91036 5.52758 8.91036C6.06008 8.91036 6.48758 9.33983 6.48758 9.8748C6.48758 10.4022 6.06008 10.8317 5.52758 10.8392Z" fill="#A6ABC8"/>
</svg>
