<svg width="18" height="19" viewBox="0 0 18 19" fill="none" xmlns="http://www.w3.org/2000/svg">
<path fill-rule="evenodd" clip-rule="evenodd" d="M5.8575 2.20093H12.1432C14.46 2.20093 15.75 3.5401 15.75 5.83475V13.6065C15.75 15.9387 14.46 17.2478 12.1432 17.2478H5.8575C3.5775 17.2478 2.25 15.9387 2.25 13.6065V5.83475C2.25 3.5401 3.5775 2.20093 5.8575 2.20093ZM6.06011 5.70685V5.69933H8.30185C8.6251 5.69933 8.8876 5.96265 8.8876 6.28541C8.8876 6.61719 8.6251 6.88051 8.30185 6.88051H6.06011C5.73686 6.88051 5.47511 6.61719 5.47511 6.29368C5.47511 5.97017 5.73686 5.70685 6.06011 5.70685ZM6.06011 10.2811H11.9401C12.2626 10.2811 12.5251 10.0178 12.5251 9.69427C12.5251 9.37076 12.2626 9.10669 11.9401 9.10669H6.06011C5.73686 9.10669 5.47511 9.37076 5.47511 9.69427C5.47511 10.0178 5.73686 10.2811 6.06011 10.2811ZM6.06002 13.7193H11.94C12.2393 13.6892 12.465 13.4327 12.465 13.1325C12.465 12.824 12.2393 12.5682 11.94 12.5381H6.06002C5.83502 12.5156 5.61752 12.6209 5.49752 12.8165C5.37752 13.0046 5.37752 13.2529 5.49752 13.4485C5.61752 13.6366 5.83502 13.7494 6.06002 13.7193Z" fill="#A6ABC8"/>
</svg>
