<svg width="18" height="19" viewBox="0 0 18 19" fill="none" xmlns="http://www.w3.org/2000/svg">
<path fill-rule="evenodd" clip-rule="evenodd" d="M5.7525 2.01636H12.255C14.7975 2.01636 16.5 3.80694 16.5 6.47023V12.6176C16.5 15.2734 14.7975 17.0632 12.255 17.0632H5.7525C3.21 17.0632 1.5 15.2734 1.5 12.6176V6.47023C1.5 3.80694 3.21 2.01636 5.7525 2.01636ZM8.99256 7.32867C8.64006 7.32867 8.34756 7.0345 8.34756 6.67413C8.34756 6.30548 8.64006 6.01207 9.00756 6.01207C9.36756 6.01207 9.66006 6.30548 9.66006 6.67413C9.66006 7.0345 9.36756 7.32867 8.99256 7.32867ZM9.65244 12.3844C9.65244 12.7455 9.35994 13.0389 8.99244 13.0389C8.63244 13.0389 8.33994 12.7455 8.33994 12.3844V9.05904C8.33994 8.69716 8.63244 8.39697 8.99244 8.39697C9.35994 8.39697 9.65244 8.69716 9.65244 9.05904V12.3844Z" fill="#A6ABC8"/>
</svg>
