<svg width="141" height="25" viewBox="0 0 141 25" fill="none" xmlns="http://www.w3.org/2000/svg">
<ellipse cx="12" cy="12.1" rx="12" ry="12.0375" fill="#5A67BA"/>
<path d="M10.357 12.1245C10.8043 12.2198 11.1637 12.4435 11.435 12.7955C11.7063 13.1401 11.842 13.5361 11.842 13.9835C11.842 14.6288 11.6147 15.1421 11.16 15.5235C10.7127 15.8975 10.0857 16.0845 9.279 16.0845H5.682V8.36247H9.158C9.94267 8.36247 10.555 8.54214 10.995 8.90147C11.4423 9.26081 11.666 9.74847 11.666 10.3645C11.666 10.8191 11.545 11.1968 11.303 11.4975C11.0683 11.7981 10.753 12.0071 10.357 12.1245ZM7.563 11.4865H8.795C9.103 11.4865 9.33767 11.4205 9.499 11.2885C9.66767 11.1491 9.752 10.9475 9.752 10.6835C9.752 10.4195 9.66767 10.2178 9.499 10.0785C9.33767 9.93914 9.103 9.86947 8.795 9.86947H7.563V11.4865ZM8.949 14.5665C9.26433 14.5665 9.50633 14.4968 9.675 14.3575C9.851 14.2108 9.939 14.0018 9.939 13.7305C9.939 13.4591 9.84733 13.2465 9.664 13.0925C9.488 12.9385 9.24233 12.8615 8.927 12.8615H7.563V14.5665H8.949ZM17.96 8.36247V9.86947H14.814V11.4975H17.168V12.9605H14.814V16.0845H12.933V8.36247H17.96Z" fill="white"/>
<path d="M37.357 11.1213C37.8043 11.2166 38.1637 11.4403 38.435 11.7923C38.7063 12.137 38.842 12.533 38.842 12.9803C38.842 13.6256 38.6147 14.139 38.16 14.5203C37.7127 14.8943 37.0857 15.0813 36.279 15.0813H32.682V7.3593H36.158C36.9427 7.3593 37.555 7.53897 37.995 7.8983C38.4423 8.25763 38.666 8.7453 38.666 9.3613C38.666 9.81597 38.545 10.1936 38.303 10.4943C38.0683 10.795 37.753 11.004 37.357 11.1213ZM34.563 10.4833H35.795C36.103 10.4833 36.3377 10.4173 36.499 10.2853C36.6677 10.146 36.752 9.9443 36.752 9.6803C36.752 9.4163 36.6677 9.21463 36.499 9.0753C36.3377 8.93597 36.103 8.8663 35.795 8.8663H34.563V10.4833ZM35.949 13.5633C36.2643 13.5633 36.5063 13.4936 36.675 13.3543C36.851 13.2076 36.939 12.9986 36.939 12.7273C36.939 12.456 36.8473 12.2433 36.664 12.0893C36.488 11.9353 36.2423 11.8583 35.927 11.8583H34.563V13.5633H35.949ZM42.314 6.9413V15.0813H40.433V6.9413H42.314ZM50.2381 8.9433V15.0813H48.3571V14.2453C48.1665 14.5166 47.9061 14.7366 47.5761 14.9053C47.2535 15.0666 46.8941 15.1473 46.4981 15.1473C46.0288 15.1473 45.6145 15.0446 45.2551 14.8393C44.8958 14.6266 44.6171 14.3223 44.4191 13.9263C44.2211 13.5303 44.1221 13.0646 44.1221 12.5293V8.9433H45.9921V12.2763C45.9921 12.687 46.0985 13.006 46.3111 13.2333C46.5238 13.4606 46.8098 13.5743 47.1691 13.5743C47.5358 13.5743 47.8255 13.4606 48.0381 13.2333C48.2508 13.006 48.3571 12.687 48.3571 12.2763V8.9433H50.2381ZM57.8752 11.9133C57.8752 12.0893 57.8642 12.2726 57.8422 12.4633H53.5852C53.6146 12.8446 53.7356 13.138 53.9482 13.3433C54.1682 13.5413 54.4359 13.6403 54.7512 13.6403C55.2206 13.6403 55.5469 13.4423 55.7302 13.0463H57.7322C57.6296 13.4496 57.4426 13.8126 57.1712 14.1353C56.9072 14.458 56.5736 14.711 56.1702 14.8943C55.7669 15.0776 55.3159 15.1693 54.8172 15.1693C54.2159 15.1693 53.6806 15.041 53.2112 14.7843C52.7419 14.5276 52.3752 14.161 52.1112 13.6843C51.8472 13.2076 51.7152 12.6503 51.7152 12.0123C51.7152 11.3743 51.8436 10.817 52.1002 10.3403C52.3642 9.86363 52.7309 9.49697 53.2002 9.2403C53.6696 8.98363 54.2086 8.8553 54.8172 8.8553C55.4112 8.8553 55.9392 8.97997 56.4012 9.2293C56.8632 9.47863 57.2226 9.8343 57.4792 10.2963C57.7432 10.7583 57.8752 11.2973 57.8752 11.9133ZM55.9502 11.4183C55.9502 11.0956 55.8402 10.839 55.6202 10.6483C55.4002 10.4576 55.1252 10.3623 54.7952 10.3623C54.4799 10.3623 54.2122 10.454 53.9922 10.6373C53.7796 10.8206 53.6476 11.081 53.5962 11.4183H55.9502ZM61.8645 15.1693C61.3292 15.1693 60.8525 15.0776 60.4345 14.8943C60.0165 14.711 59.6865 14.4616 59.4445 14.1463C59.2025 13.8236 59.0669 13.4643 59.0375 13.0683H60.8965C60.9185 13.281 61.0175 13.4533 61.1935 13.5853C61.3695 13.7173 61.5859 13.7833 61.8425 13.7833C62.0772 13.7833 62.2569 13.7393 62.3815 13.6513C62.5135 13.556 62.5795 13.435 62.5795 13.2883C62.5795 13.1123 62.4879 12.984 62.3045 12.9033C62.1212 12.8153 61.8242 12.72 61.4135 12.6173C60.9735 12.5146 60.6069 12.4083 60.3135 12.2983C60.0202 12.181 59.7672 12.0013 59.5545 11.7593C59.3419 11.51 59.2355 11.1763 59.2355 10.7583C59.2355 10.4063 59.3309 10.0873 59.5215 9.8013C59.7195 9.50797 60.0055 9.27697 60.3795 9.1083C60.7609 8.93963 61.2119 8.8553 61.7325 8.8553C62.5025 8.8553 63.1075 9.04597 63.5475 9.4273C63.9949 9.80863 64.2515 10.3146 64.3175 10.9453H62.5795C62.5502 10.7326 62.4549 10.564 62.2935 10.4393C62.1395 10.3146 61.9342 10.2523 61.6775 10.2523C61.4575 10.2523 61.2889 10.2963 61.1715 10.3843C61.0542 10.465 60.9955 10.5786 60.9955 10.7253C60.9955 10.9013 61.0872 11.0333 61.2705 11.1213C61.4612 11.2093 61.7545 11.2973 62.1505 11.3853C62.6052 11.5026 62.9755 11.62 63.2615 11.7373C63.5475 11.8473 63.7969 12.0306 64.0095 12.2873C64.2295 12.5366 64.3432 12.874 64.3505 13.2993C64.3505 13.6586 64.2479 13.9813 64.0425 14.2673C63.8445 14.546 63.5549 14.766 63.1735 14.9273C62.7995 15.0886 62.3632 15.1693 61.8645 15.1693ZM69.4223 13.4863V15.0813H68.4653C67.7833 15.0813 67.2517 14.9163 66.8703 14.5863C66.489 14.249 66.2983 13.7026 66.2983 12.9473V10.5053H65.5503V8.9433H66.2983V7.4473H68.1793V8.9433H69.4113V10.5053H68.1793V12.9693C68.1793 13.1526 68.2233 13.2846 68.3113 13.3653C68.3993 13.446 68.546 13.4863 68.7513 13.4863H69.4223ZM73.7641 15.1693C73.1628 15.1693 72.6201 15.041 72.1361 14.7843C71.6594 14.5276 71.2818 14.161 71.0031 13.6843C70.7318 13.2076 70.5961 12.6503 70.5961 12.0123C70.5961 11.3816 70.7354 10.828 71.0141 10.3513C71.2928 9.8673 71.6741 9.49697 72.1581 9.2403C72.6421 8.98363 73.1848 8.8553 73.7861 8.8553C74.3874 8.8553 74.9301 8.98363 75.4141 9.2403C75.8981 9.49697 76.2794 9.8673 76.5581 10.3513C76.8368 10.828 76.9761 11.3816 76.9761 12.0123C76.9761 12.643 76.8331 13.2003 76.5471 13.6843C76.2684 14.161 75.8834 14.5276 75.3921 14.7843C74.9081 15.041 74.3654 15.1693 73.7641 15.1693ZM73.7641 13.5413C74.1234 13.5413 74.4278 13.4093 74.6771 13.1453C74.9338 12.8813 75.0621 12.5036 75.0621 12.0123C75.0621 11.521 74.9374 11.1433 74.6881 10.8793C74.4461 10.6153 74.1454 10.4833 73.7861 10.4833C73.4194 10.4833 73.1151 10.6153 72.8731 10.8793C72.6311 11.136 72.5101 11.5136 72.5101 12.0123C72.5101 12.5036 72.6274 12.8813 72.8621 13.1453C73.1041 13.4093 73.4048 13.5413 73.7641 13.5413ZM78.1 12.0123C78.1 11.3743 78.2283 10.817 78.485 10.3403C78.749 9.86363 79.112 9.49697 79.574 9.2403C80.0433 8.98363 80.5787 8.8553 81.18 8.8553C81.95 8.8553 82.5917 9.05697 83.105 9.4603C83.6257 9.86363 83.9667 10.432 84.128 11.1653H82.126C81.9573 10.696 81.631 10.4613 81.147 10.4613C80.8023 10.4613 80.5273 10.597 80.322 10.8683C80.1167 11.1323 80.014 11.5136 80.014 12.0123C80.014 12.511 80.1167 12.896 80.322 13.1673C80.5273 13.4313 80.8023 13.5633 81.147 13.5633C81.631 13.5633 81.9573 13.3286 82.126 12.8593H84.128C83.9667 13.578 83.6257 14.1426 83.105 14.5533C82.5843 14.964 81.9427 15.1693 81.18 15.1693C80.5787 15.1693 80.0433 15.041 79.574 14.7843C79.112 14.5276 78.749 14.161 78.485 13.6843C78.2283 13.2076 78.1 12.6503 78.1 12.0123ZM89.3851 15.0813L87.5151 12.5073V15.0813H85.6341V6.9413H87.5151V11.4403L89.3741 8.9433H91.6951L89.1431 12.0233L91.7171 15.0813H89.3851ZM100.792 7.3593V8.8663H97.646V10.4943H100V11.9573H97.646V15.0813H95.765V7.3593H100.792ZM103.227 8.3053C102.897 8.3053 102.625 8.20997 102.413 8.0193C102.207 7.8213 102.105 7.5793 102.105 7.2933C102.105 6.99997 102.207 6.75797 102.413 6.5673C102.625 6.3693 102.897 6.2703 103.227 6.2703C103.549 6.2703 103.813 6.3693 104.019 6.5673C104.231 6.75797 104.338 6.99997 104.338 7.2933C104.338 7.5793 104.231 7.8213 104.019 8.0193C103.813 8.20997 103.549 8.3053 103.227 8.3053ZM104.162 8.9433V15.0813H102.281V8.9433H104.162ZM109.765 8.8773C110.483 8.8773 111.055 9.11197 111.481 9.5813C111.913 10.0433 112.13 10.6813 112.13 11.4953V15.0813H110.26V11.7483C110.26 11.3376 110.153 11.0186 109.941 10.7913C109.728 10.564 109.442 10.4503 109.083 10.4503C108.723 10.4503 108.437 10.564 108.225 10.7913C108.012 11.0186 107.906 11.3376 107.906 11.7483V15.0813H106.025V8.9433H107.906V9.7573C108.096 9.48597 108.353 9.2733 108.676 9.1193C108.998 8.95797 109.361 8.8773 109.765 8.8773ZM117.358 13.4863V15.0813H116.401C115.719 15.0813 115.187 14.9163 114.806 14.5863C114.425 14.249 114.234 13.7026 114.234 12.9473V10.5053H113.486V8.9433H114.234V7.4473H116.115V8.9433H117.347V10.5053H116.115V12.9693C116.115 13.1526 116.159 13.2846 116.247 13.3653C116.335 13.446 116.482 13.4863 116.687 13.4863H117.358ZM124.692 11.9133C124.692 12.0893 124.681 12.2726 124.659 12.4633H120.402C120.431 12.8446 120.552 13.138 120.765 13.3433C120.985 13.5413 121.252 13.6403 121.568 13.6403C122.037 13.6403 122.363 13.4423 122.547 13.0463H124.549C124.446 13.4496 124.259 13.8126 123.988 14.1353C123.724 14.458 123.39 14.711 122.987 14.8943C122.583 15.0776 122.132 15.1693 121.634 15.1693C121.032 15.1693 120.497 15.041 120.028 14.7843C119.558 14.5276 119.192 14.161 118.928 13.6843C118.664 13.2076 118.532 12.6503 118.532 12.0123C118.532 11.3743 118.66 10.817 118.917 10.3403C119.181 9.86363 119.547 9.49697 120.017 9.2403C120.486 8.98363 121.025 8.8553 121.634 8.8553C122.228 8.8553 122.756 8.97997 123.218 9.2293C123.68 9.47863 124.039 9.8343 124.296 10.2963C124.56 10.7583 124.692 11.2973 124.692 11.9133ZM122.767 11.4183C122.767 11.0956 122.657 10.839 122.437 10.6483C122.217 10.4576 121.942 10.3623 121.612 10.3623C121.296 10.3623 121.029 10.454 120.809 10.6373C120.596 10.8206 120.464 11.081 120.413 11.4183H122.767ZM125.81 12.0123C125.81 11.3743 125.938 10.817 126.195 10.3403C126.459 9.86363 126.822 9.49697 127.284 9.2403C127.753 8.98363 128.289 8.8553 128.89 8.8553C129.66 8.8553 130.302 9.05697 130.815 9.4603C131.336 9.86363 131.677 10.432 131.838 11.1653H129.836C129.667 10.696 129.341 10.4613 128.857 10.4613C128.512 10.4613 128.237 10.597 128.032 10.8683C127.827 11.1323 127.724 11.5136 127.724 12.0123C127.724 12.511 127.827 12.896 128.032 13.1673C128.237 13.4313 128.512 13.5633 128.857 13.5633C129.341 13.5633 129.667 13.3286 129.836 12.8593H131.838C131.677 13.578 131.336 14.1426 130.815 14.5533C130.294 14.964 129.653 15.1693 128.89 15.1693C128.289 15.1693 127.753 15.041 127.284 14.7843C126.822 14.5276 126.459 14.161 126.195 13.6843C125.938 13.2076 125.81 12.6503 125.81 12.0123ZM137.117 8.8773C137.821 8.8773 138.386 9.11197 138.811 9.5813C139.236 10.0433 139.449 10.6813 139.449 11.4953V15.0813H137.579V11.7483C137.579 11.3376 137.473 11.0186 137.26 10.7913C137.047 10.564 136.761 10.4503 136.402 10.4503C136.043 10.4503 135.757 10.564 135.544 10.7913C135.331 11.0186 135.225 11.3376 135.225 11.7483V15.0813H133.344V6.9413H135.225V9.7683C135.416 9.49697 135.676 9.28063 136.006 9.1193C136.336 8.95797 136.706 8.8773 137.117 8.8773Z" fill="#5A67BA"/>
</svg>
