<svg width="18" height="19" viewBox="0 0 18 19" fill="none" xmlns="http://www.w3.org/2000/svg">
<path d="M9.53799 1.62305C10.1051 1.62311 10.6187 1.93892 10.9022 2.40527C11.0402 2.63098 11.1323 2.90971 11.1093 3.20312C11.094 3.42878 11.1625 3.65462 11.2851 3.86523C11.676 4.50472 12.5422 4.74491 13.2167 4.38379C13.9755 3.94745 14.9341 4.21124 15.371 4.95605L15.8837 5.84375C16.3282 6.58847 16.0835 7.54374 15.3173 7.97266C14.6659 8.35629 14.4354 9.20654 14.8261 9.85352C14.9487 10.0566 15.0871 10.2296 15.3017 10.335C15.5699 10.4779 15.7771 10.704 15.9228 10.9297C16.2062 11.3961 16.183 11.9677 15.9071 12.4717L15.371 13.375C15.0874 13.8564 14.5577 14.1572 14.0136 14.1572C13.7454 14.1571 13.4462 14.082 13.2011 13.9316C13.0019 13.8039 12.7724 13.7588 12.5272 13.7588C11.7684 13.7588 11.1323 14.3831 11.1093 15.1279C11.1091 15.993 10.4037 16.6699 9.52237 16.6699H8.48037C7.59138 16.6699 6.88582 15.993 6.88565 15.1279C6.87032 14.3831 6.23429 13.7588 5.47549 13.7588C5.22258 13.7588 4.99229 13.8038 4.80069 13.9316C4.55548 14.082 4.24865 14.1572 3.98819 14.1572C3.43652 14.1571 2.90747 13.8563 2.62393 13.375L2.09561 12.4717C1.81207 11.9827 1.7965 11.3961 2.07998 10.9297C2.20262 10.704 2.43267 10.4779 2.69326 10.335C2.90779 10.2296 3.04542 10.0566 3.17569 9.85352C3.55892 9.2065 3.32914 8.35635 2.67764 7.97266C1.91907 7.54374 1.6744 6.58847 2.11123 5.84375L2.62393 4.95605C3.06848 4.21123 4.01957 3.94743 4.78604 4.38379C5.45285 4.74484 6.31898 4.50469 6.70987 3.86523C6.83247 3.65462 6.90094 3.42878 6.88565 3.20312C6.87032 2.90971 6.95486 2.63098 7.10049 2.40527C7.38408 1.93896 7.89755 1.63815 8.45694 1.62305H9.53799ZM9.00869 7.02441C7.80543 7.02451 6.83194 7.97318 6.83194 9.1543C6.83209 10.3353 7.80552 11.2753 9.00869 11.2754C10.212 11.2754 11.1628 10.3353 11.163 9.1543C11.163 7.97312 10.212 7.02441 9.00869 7.02441Z" fill="#A6ABC8"/>
</svg>
