<svg width="17" height="23" viewBox="0 0 17 23" fill="none" xmlns="http://www.w3.org/2000/svg">
<path d="M5.375 0.5625H2.25C1.38721 0.5625 0.6875 1.26221 0.6875 2.125V5.25C0.6875 6.11279 1.38721 6.8125 2.25 6.8125H5.375C6.23779 6.8125 6.9375 6.11279 6.9375 5.25V2.125C6.9375 1.26221 6.23779 0.5625 5.375 0.5625ZM5.375 8.375H2.25C1.38721 8.375 0.6875 9.07471 0.6875 9.9375V13.0625C0.6875 13.9253 1.38721 14.625 2.25 14.625H5.375C6.23779 14.625 6.9375 13.9253 6.9375 13.0625V9.9375C6.9375 9.07471 6.23779 8.375 5.375 8.375ZM5.375 16.1875H2.25C1.38721 16.1875 0.6875 16.8872 0.6875 17.75V20.875C0.6875 21.7378 1.38721 22.4375 2.25 22.4375H5.375C6.23779 22.4375 6.9375 21.7378 6.9375 20.875V17.75C6.9375 16.8872 6.23779 16.1875 5.375 16.1875ZM14.75 0.5625H11.625C10.7622 0.5625 10.0625 1.26221 10.0625 2.125V5.25C10.0625 6.11279 10.7622 6.8125 11.625 6.8125H14.75C15.6128 6.8125 16.3125 6.11279 16.3125 5.25V2.125C16.3125 1.26221 15.6128 0.5625 14.75 0.5625ZM14.75 8.375H11.625C10.7622 8.375 10.0625 9.07471 10.0625 9.9375V13.0625C10.0625 13.9253 10.7622 14.625 11.625 14.625H14.75C15.6128 14.625 16.3125 13.9253 16.3125 13.0625V9.9375C16.3125 9.07471 15.6128 8.375 14.75 8.375ZM14.75 16.1875H11.625C10.7622 16.1875 10.0625 16.8872 10.0625 17.75V20.875C10.0625 21.7378 10.7622 22.4375 11.625 22.4375H14.75C15.6128 22.4375 16.3125 21.7378 16.3125 20.875V17.75C16.3125 16.8872 15.6128 16.1875 14.75 16.1875Z" fill="black"/>
</svg>
