<svg width="18" height="19" viewBox="0 0 18 19" fill="none" xmlns="http://www.w3.org/2000/svg">
<path fill-rule="evenodd" clip-rule="evenodd" d="M13.3267 6.5558H16.5C16.5 3.99993 14.9733 2.50684 12.3867 2.50684H5.61333C3.02667 2.50684 1.5 3.99993 1.5 6.5232V12.0327C1.5 14.5559 3.02667 16.049 5.61333 16.049H12.3867C14.9733 16.049 16.5 14.5559 16.5 12.0327V11.7979H13.3267C11.8539 11.7979 10.66 10.6303 10.66 9.18991C10.66 7.74953 11.8539 6.58188 13.3267 6.58188V6.5558ZM13.3265 7.67726H15.9399C16.2492 7.67726 16.4999 7.92246 16.4999 8.22494V10.1288C16.4963 10.4298 16.2477 10.673 15.9399 10.6765H13.3865C12.641 10.6863 11.989 10.187 11.8199 9.4768C11.7352 9.0359 11.8541 8.58094 12.1447 8.23384C12.4353 7.88675 12.8679 7.68302 13.3265 7.67726ZM13.4399 9.67892H13.6866C14.0032 9.67892 14.2599 9.42788 14.2599 9.1182C14.2599 8.80852 14.0032 8.55747 13.6866 8.55747H13.4399C13.2884 8.55573 13.1426 8.61335 13.0349 8.71747C12.9272 8.8216 12.8665 8.96356 12.8666 9.11168C12.8665 9.42243 13.1222 9.67535 13.4399 9.67892ZM5.05343 6.55581H9.28677C9.60341 6.55581 9.8601 6.30476 9.8601 5.99508C9.8601 5.6854 9.60341 5.43436 9.28677 5.43436H5.05343C4.73938 5.43433 4.48375 5.68143 4.4801 5.98856C4.48008 6.29931 4.73572 6.55224 5.05343 6.55581Z" fill="#A6ABC8"/>
</svg>
